<svg width="23" height="23" viewBox="0 0 23 23" fill="none" xmlns="http://www.w3.org/2000/svg">
<path d="M17.41 8.20971C17.554 8.06574 17.6349 7.87049 17.6349 7.66689C17.6349 7.46329 17.554 7.26804 17.41 7.12407C17.2661 6.98011 17.0708 6.89923 16.8672 6.89923C16.6636 6.89923 16.4684 6.98011 16.3244 7.12407L12.2671 11.1829L10.5098 9.42414C10.4385 9.35286 10.3539 9.29632 10.2608 9.25774C10.1676 9.21916 10.0678 9.1993 9.967 9.1993C9.86619 9.1993 9.76637 9.21916 9.67323 9.25774C9.58009 9.29632 9.49547 9.35286 9.42418 9.42414C9.3529 9.49543 9.29635 9.58005 9.25778 9.67319C9.2192 9.76633 9.19934 9.86615 9.19934 9.96696C9.19934 10.0678 9.2192 10.1676 9.25778 10.2607C9.29635 10.3539 9.3529 10.4385 9.42418 10.5098L11.7243 12.8098C11.7955 12.8812 11.8801 12.9379 11.9732 12.9765C12.0664 13.0152 12.1662 13.0351 12.2671 13.0351C12.3679 13.0351 12.4678 13.0152 12.5609 12.9765C12.6541 12.9379 12.7387 12.8812 12.8099 12.8098L17.41 8.20971Z" fill="#2A2A2B"/>
<path d="M0.76669 0C0.563351 0 0.368341 0.080776 0.224558 0.224558C0.0807761 0.368341 0 0.563351 0 0.76669C0 0.970029 0.0807761 1.16504 0.224558 1.30882C0.368341 1.4526 0.563351 1.53338 0.76669 1.53338H2.46874L3.08363 3.99752L5.38063 16.2416C5.41352 16.4173 5.50676 16.5759 5.64424 16.6902C5.78171 16.8044 5.95478 16.867 6.13352 16.8672H7.6669C6.85355 16.8672 6.07351 17.1903 5.49838 17.7654C4.92325 18.3406 4.60014 19.1206 4.60014 19.9339C4.60014 20.7473 4.92325 21.5273 5.49838 22.1025C6.07351 22.6776 6.85355 23.0007 7.6669 23.0007C8.48026 23.0007 9.2603 22.6776 9.83543 22.1025C10.4106 21.5273 10.7337 20.7473 10.7337 19.9339C10.7337 19.1206 10.4106 18.3406 9.83543 17.7654C9.2603 17.1903 8.48026 16.8672 7.6669 16.8672H18.4006C17.5872 16.8672 16.8072 17.1903 16.232 17.7654C15.6569 18.3406 15.3338 19.1206 15.3338 19.9339C15.3338 20.7473 15.6569 21.5273 16.232 22.1025C16.8072 22.6776 17.5872 23.0007 18.4006 23.0007C19.2139 23.0007 19.994 22.6776 20.5691 22.1025C21.1442 21.5273 21.4673 20.7473 21.4673 19.9339C21.4673 19.1206 21.1442 18.3406 20.5691 17.7654C19.994 17.1903 19.2139 16.8672 18.4006 16.8672H19.9339C20.1127 16.867 20.2858 16.8044 20.4232 16.6902C20.5607 16.5759 20.654 16.4173 20.6868 16.2416L22.9869 3.97452C23.0076 3.86387 23.0037 3.75001 22.9755 3.64104C22.9472 3.53207 22.8953 3.43065 22.8234 3.344C22.7516 3.25735 22.6615 3.18759 22.5596 3.13968C22.4578 3.09176 22.3466 3.06687 22.234 3.06676H4.43147L3.81045 0.581151C3.76906 0.415215 3.67339 0.26788 3.53863 0.162576C3.40388 0.0572728 3.23778 4.72457e-05 3.06676 0H0.76669ZM6.76988 15.3338L4.75655 4.60014H21.3109L19.2976 15.3338H6.76988ZM9.20028 19.9339C9.20028 20.3406 9.03873 20.7306 8.75117 21.0182C8.4636 21.3058 8.07358 21.4673 7.6669 21.4673C7.26023 21.4673 6.8702 21.3058 6.58264 21.0182C6.29508 20.7306 6.13352 20.3406 6.13352 19.9339C6.13352 19.5273 6.29508 19.1373 6.58264 18.8497C6.8702 18.5621 7.26023 18.4006 7.6669 18.4006C8.07358 18.4006 8.4636 18.5621 8.75117 18.8497C9.03873 19.1373 9.20028 19.5273 9.20028 19.9339ZM19.9339 19.9339C19.9339 20.3406 19.7724 20.7306 19.4848 21.0182C19.1973 21.3058 18.8072 21.4673 18.4006 21.4673C17.9939 21.4673 17.6039 21.3058 17.3163 21.0182C17.0287 20.7306 16.8672 20.3406 16.8672 19.9339C16.8672 19.5273 17.0287 19.1373 17.3163 18.8497C17.6039 18.5621 17.9939 18.4006 18.4006 18.4006C18.8072 18.4006 19.1973 18.5621 19.4848 18.8497C19.7724 19.1373 19.9339 19.5273 19.9339 19.9339Z" fill="#2A2A2B"/>
</svg>
