<svg width="25" height="25" viewBox="0 0 25 25" fill="none" xmlns="http://www.w3.org/2000/svg">
<path d="M0.833323 12.5L0.0599892 12.19C-0.0197522 12.389 -0.0197522 12.611 0.0599892 12.81L0.833323 12.5ZM24.1667 12.5L24.94 12.81C25.0197 12.611 25.0197 12.389 24.94 12.19L24.1667 12.5ZM12.5 20C8.64332 20 5.93499 18.08 4.16166 16.11C3.19266 15.0261 2.3798 13.8121 1.74666 12.5033C1.70027 12.4042 1.65582 12.3042 1.61332 12.2033L1.60666 12.1917L0.833323 12.5L0.0599892 12.81V12.8133L0.0649892 12.82C0.0788666 12.8552 0.0933129 12.8902 0.108323 12.925L0.238323 13.2133C0.940833 14.6689 1.84408 16.0187 2.92166 17.2233C4.89999 19.42 8.02332 21.6667 12.5 21.6667V20ZM0.833323 12.5L1.60666 12.81L1.61332 12.7967C1.65399 12.695 1.69847 12.595 1.74666 12.4967C2.3798 11.1879 3.19266 9.97393 4.16166 8.89001C5.93332 6.92001 8.64332 5.00001 12.5 5.00001V3.33334C8.02332 3.33334 4.89832 5.58001 2.92166 7.77668C1.84406 8.98126 0.940814 10.3311 0.238323 11.7867C0.177756 11.9165 0.119966 12.0477 0.0649892 12.18L0.0616558 12.1867V12.1883H0.0583225L0.833323 12.5ZM12.5 5.00001C16.3567 5.00001 19.065 6.92001 20.8383 8.89001C21.8073 9.97395 22.6201 11.1879 23.2533 12.4967C23.2999 12.5957 23.3443 12.6958 23.3867 12.7967L23.3933 12.8083L24.1667 12.5L24.94 12.19V12.1867L24.935 12.18C24.9224 12.1443 24.9079 12.1092 24.8917 12.075C24.6956 11.6355 24.4787 11.2056 24.2417 10.7867C23.6306 9.70866 22.9053 8.69952 22.0783 7.77668C20.1 5.58001 16.9767 3.33334 12.5 3.33334V5.00001ZM24.1667 12.5C23.9085 12.3976 23.6507 12.2943 23.3933 12.19L23.3883 12.2033L23.3633 12.2617L23.2533 12.5033C22.6201 13.8121 21.8073 15.0261 20.8383 16.11C19.0667 18.08 16.3567 20 12.5 20V21.6667C16.9767 21.6667 20.1017 19.42 22.0783 17.225C23.1561 16.0199 24.0593 14.6695 24.7617 13.2133C24.8222 13.0835 24.88 12.9523 24.935 12.82L24.9383 12.8133V12.8117L24.94 12.81L24.1667 12.5ZM12.5 15C11.8369 15 11.2011 14.7366 10.7322 14.2678C10.2634 13.7989 9.99999 13.1631 9.99999 12.5H8.33332C8.33332 13.6051 8.77231 14.6649 9.55371 15.4463C10.3351 16.2277 11.3949 16.6667 12.5 16.6667V15ZM15 12.5C15 13.1631 14.7366 13.7989 14.2678 14.2678C13.7989 14.7366 13.163 15 12.5 15V16.6667C13.6051 16.6667 14.6649 16.2277 15.4463 15.4463C16.2277 14.6649 16.6667 13.6051 16.6667 12.5H15ZM12.5 10C13.163 10 13.7989 10.2634 14.2678 10.7322C14.7366 11.2011 15 11.837 15 12.5H16.6667C16.6667 11.3949 16.2277 10.3351 15.4463 9.55373C14.6649 8.77233 13.6051 8.33334 12.5 8.33334V10ZM12.5 8.33334C11.3949 8.33334 10.3351 8.77233 9.55371 9.55373C8.77231 10.3351 8.33332 11.3949 8.33332 12.5H9.99999C9.99999 11.837 10.2634 11.2011 10.7322 10.7322C11.2011 10.2634 11.8369 10 12.5 10V8.33334Z" fill="#2A2A2B"/>
</svg>
