<svg width="23" height="22" viewBox="0 0 23 22" fill="none" xmlns="http://www.w3.org/2000/svg">
<path d="M11.615 17.8825L11.5 17.9975L11.3735 17.8825C5.911 12.926 2.3 9.6485 2.3 6.325C2.3 4.025 4.025 2.3 6.325 2.3C8.096 2.3 9.821 3.45 10.4305 5.014H12.5695C13.179 3.45 14.904 2.3 16.675 2.3C18.975 2.3 20.7 4.025 20.7 6.325C20.7 9.6485 17.089 12.926 11.615 17.8825ZM16.675 0C14.674 0 12.7535 0.9315 11.5 2.392C10.2465 0.9315 8.326 0 6.325 0C2.783 0 0 2.7715 0 6.325C0 10.6605 3.91 14.214 9.8325 19.5845L11.5 21.1025L13.1675 19.5845C19.09 14.214 23 10.6605 23 6.325C23 2.7715 20.217 0 16.675 0Z" fill="#2A2A2B"/>
</svg>
