<svg width="25" height="13" viewBox="0 0 25 13" fill="none" xmlns="http://www.w3.org/2000/svg">
<path fill-rule="evenodd" clip-rule="evenodd" d="M4.12285 3.93864C5.90294 5.91801 8.62583 7.84714 12.5008 7.84714C16.3758 7.84714 19.0971 5.91801 20.8788 3.93864C21.8524 2.84954 22.6691 1.62983 23.3053 0.314823C23.352 0.215243 23.3966 0.114748 23.4393 0.0133966L23.446 0.00167447L24.223 0.311474L25 0.622948V0.626298L24.995 0.632996L24.9866 0.65644C24.9353 0.782358 24.8795 0.90636 24.8191 1.0282C24.1133 2.49068 23.2057 3.84692 22.1231 5.05727C21.8051 5.41138 21.471 5.75056 21.1216 6.07375L23.9785 8.92893L22.7929 10.1145L19.8222 7.14214C17.9313 8.53222 15.6804 9.34897 13.3381 9.49494V12.8709H11.6635V9.49494C9.32141 9.34946 7.07057 8.5333 5.17952 7.14381L2.20879 10.1162L1.02318 8.93061L3.88003 6.07542C3.5302 5.75222 3.19548 5.41303 2.87695 5.05895C1.79423 3.84863 0.886688 2.49239 0.180856 1.02987C0.123116 0.907075 0.0678435 0.78313 0.0150713 0.658114L0.00837296 0.632996L0.00502378 0.626298V0.624623H0L0.778686 0.311474L1.5557 0L1.5624 0.0133966C1.60328 0.115508 1.64796 0.216054 1.69636 0.314823C2.33252 1.62985 3.14924 2.84957 4.12285 3.93864Z" fill="#2A2A2B"/>
</svg>
